<svg xmlns="http://www.w3.org/2000/svg" viewBox="0 0 620 170" role="img" aria-labelledby="title desc">
  <title id="title">Anthem Cooling Heating Plumbing</title>
  <desc id="desc">Anthem mountain mark with Cooling Heating Plumbing wordmark.</desc>
  <defs>
    <linearGradient id="redSlash" x1="0" x2="1" y1="0" y2="0">
      <stop offset="0" stop-color="#ff2735"/>
      <stop offset="1" stop-color="#b70818"/>
    </linearGradient>
    <linearGradient id="blueSlash" x1="0" x2="1" y1="0" y2="0">
      <stop offset="0" stop-color="#2f65c9"/>
      <stop offset="1" stop-color="#0b2c6b"/>
    </linearGradient>
  </defs>
  <rect width="620" height="170" fill="none"/>
  <g transform="translate(22 30)">
    <path d="M0 62 102 48" fill="none" stroke="url(#redSlash)" stroke-width="8"/>
    <path d="M14 74 116 56" fill="none" stroke="url(#blueSlash)" stroke-width="8"/>
    <path d="M118 2 184 116h-36l-32-57-43 73H39L118 2Z" fill="#fff"/>
    <path d="M119 40 151 96h-20l-13-24-22 38H76l43-70Z" fill="#0b1020" opacity=".42"/>
    <path d="M153 62h50l-22 24h-14l17 30h-34l-36-65 17-30 22 41Z" fill="#fff"/>
  </g>
  <g transform="translate(225 34)" fill="#fff">
    <text x="0" y="50" font-family="Georgia, 'Times New Roman', serif" font-size="54" font-weight="700" letter-spacing="12">ANTHEM</text>
    <rect x="4" y="67" width="334" height="2" fill="#fff" opacity=".72"/>
    <text x="4" y="92" font-family="Inter, Arial, sans-serif" font-size="17" font-weight="700" letter-spacing="1.8">Cooling • Heating • Plumbing</text>
  </g>
</svg>
